<mxfile host="Electron" agent="Mozilla/5.0 (Windows NT 10.0; Win64; x64) AppleWebKit/537.36 (KHTML, like Gecko) draw.io/24.7.8 Chrome/128.0.6613.36 Electron/32.0.1 Safari/537.36" version="24.7.8">
  <diagram name="Page-1" id="c3v6dyS0FOxBxmUNKeXW">
    <mxGraphModel dx="1802" dy="909" grid="1" gridSize="10" guides="1" tooltips="1" connect="1" arrows="1" fold="1" page="1" pageScale="1" pageWidth="850" pageHeight="1100" math="0" shadow="0">
      <root>
        <mxCell id="0" />
        <mxCell id="1" parent="0" />
        <mxCell id="JVvVYdlz2nHnX6RRCO4o-1" style="edgeStyle=orthogonalEdgeStyle;shape=connector;rounded=0;orthogonalLoop=1;jettySize=auto;html=1;exitX=0.75;exitY=0;exitDx=0;exitDy=0;entryX=0.5;entryY=1;entryDx=0;entryDy=0;strokeColor=default;align=center;verticalAlign=middle;fontFamily=Helvetica;fontSize=12;fontColor=#000000;fontStyle=4;labelBackgroundColor=default;endArrow=none;endFill=0;" edge="1" parent="1" source="JVvVYdlz2nHnX6RRCO4o-5" target="JVvVYdlz2nHnX6RRCO4o-9">
          <mxGeometry relative="1" as="geometry" />
        </mxCell>
        <mxCell id="JVvVYdlz2nHnX6RRCO4o-2" style="edgeStyle=orthogonalEdgeStyle;shape=connector;rounded=0;orthogonalLoop=1;jettySize=auto;html=1;exitX=0.25;exitY=0;exitDx=0;exitDy=0;entryX=0.5;entryY=1;entryDx=0;entryDy=0;strokeColor=default;align=center;verticalAlign=middle;fontFamily=Helvetica;fontSize=12;fontColor=#000000;fontStyle=4;labelBackgroundColor=default;endArrow=none;endFill=0;" edge="1" parent="1" source="JVvVYdlz2nHnX6RRCO4o-5" target="JVvVYdlz2nHnX6RRCO4o-6">
          <mxGeometry relative="1" as="geometry" />
        </mxCell>
        <mxCell id="JVvVYdlz2nHnX6RRCO4o-3" style="edgeStyle=orthogonalEdgeStyle;shape=connector;rounded=0;orthogonalLoop=1;jettySize=auto;html=1;exitX=1;exitY=0.5;exitDx=0;exitDy=0;strokeColor=default;align=center;verticalAlign=middle;fontFamily=Helvetica;fontSize=12;fontColor=#000000;fontStyle=0;labelBackgroundColor=default;endArrow=none;endFill=0;" edge="1" parent="1" source="JVvVYdlz2nHnX6RRCO4o-5" target="JVvVYdlz2nHnX6RRCO4o-24">
          <mxGeometry relative="1" as="geometry" />
        </mxCell>
        <mxCell id="JVvVYdlz2nHnX6RRCO4o-4" style="edgeStyle=orthogonalEdgeStyle;shape=connector;rounded=0;orthogonalLoop=1;jettySize=auto;html=1;exitX=1;exitY=1;exitDx=0;exitDy=0;entryX=0.5;entryY=0;entryDx=0;entryDy=0;strokeColor=default;align=center;verticalAlign=middle;fontFamily=Helvetica;fontSize=12;fontColor=#000000;fontStyle=0;labelBackgroundColor=default;endArrow=none;endFill=0;" edge="1" parent="1" source="JVvVYdlz2nHnX6RRCO4o-5" target="JVvVYdlz2nHnX6RRCO4o-45">
          <mxGeometry relative="1" as="geometry" />
        </mxCell>
        <mxCell id="JVvVYdlz2nHnX6RRCO4o-5" value="Book" style="whiteSpace=wrap;html=1;align=center;strokeColor=#A50040;verticalAlign=middle;fontFamily=Helvetica;fontSize=12;fontColor=#ffffff;fillColor=#d80073;" vertex="1" parent="1">
          <mxGeometry x="345" y="340" width="100" height="40" as="geometry" />
        </mxCell>
        <mxCell id="JVvVYdlz2nHnX6RRCO4o-6" value="ISBN" style="ellipse;whiteSpace=wrap;html=1;align=center;fontStyle=4;strokeColor=#B09500;verticalAlign=middle;fontFamily=Helvetica;fontSize=12;fontColor=#000000;fillColor=#e3c800;" vertex="1" parent="1">
          <mxGeometry x="235" y="260" width="100" height="40" as="geometry" />
        </mxCell>
        <mxCell id="JVvVYdlz2nHnX6RRCO4o-7" style="edgeStyle=orthogonalEdgeStyle;shape=connector;rounded=0;orthogonalLoop=1;jettySize=auto;html=1;exitX=0.5;exitY=1;exitDx=0;exitDy=0;entryX=0.5;entryY=0;entryDx=0;entryDy=0;strokeColor=default;align=center;verticalAlign=middle;fontFamily=Helvetica;fontSize=12;fontColor=#000000;fontStyle=4;labelBackgroundColor=default;endArrow=none;endFill=0;" edge="1" parent="1" source="JVvVYdlz2nHnX6RRCO4o-8" target="JVvVYdlz2nHnX6RRCO4o-5">
          <mxGeometry relative="1" as="geometry" />
        </mxCell>
        <mxCell id="JVvVYdlz2nHnX6RRCO4o-8" value="title" style="ellipse;whiteSpace=wrap;html=1;align=center;strokeColor=#B09500;verticalAlign=middle;fontFamily=Helvetica;fontSize=12;fontColor=#000000;fillColor=#e3c800;" vertex="1" parent="1">
          <mxGeometry x="345" y="260" width="100" height="40" as="geometry" />
        </mxCell>
        <mxCell id="JVvVYdlz2nHnX6RRCO4o-9" value="publishing_year" style="ellipse;whiteSpace=wrap;html=1;align=center;strokeColor=#B09500;verticalAlign=middle;fontFamily=Helvetica;fontSize=12;fontColor=#000000;fillColor=#e3c800;" vertex="1" parent="1">
          <mxGeometry x="455" y="260" width="100" height="40" as="geometry" />
        </mxCell>
        <mxCell id="JVvVYdlz2nHnX6RRCO4o-10" style="edgeStyle=orthogonalEdgeStyle;shape=connector;rounded=0;orthogonalLoop=1;jettySize=auto;html=1;exitX=1;exitY=0.5;exitDx=0;exitDy=0;entryX=0;entryY=0.5;entryDx=0;entryDy=0;strokeColor=default;align=center;verticalAlign=middle;fontFamily=Helvetica;fontSize=12;fontColor=#000000;fontStyle=0;labelBackgroundColor=default;endArrow=none;endFill=0;" edge="1" parent="1" source="JVvVYdlz2nHnX6RRCO4o-11" target="JVvVYdlz2nHnX6RRCO4o-17">
          <mxGeometry relative="1" as="geometry" />
        </mxCell>
        <mxCell id="JVvVYdlz2nHnX6RRCO4o-11" value="Author" style="whiteSpace=wrap;html=1;align=center;strokeColor=#A50040;verticalAlign=middle;fontFamily=Helvetica;fontSize=12;fontColor=#ffffff;fontStyle=0;fillColor=#d80073;" vertex="1" parent="1">
          <mxGeometry x="195" y="450" width="100" height="40" as="geometry" />
        </mxCell>
        <mxCell id="JVvVYdlz2nHnX6RRCO4o-12" style="edgeStyle=orthogonalEdgeStyle;shape=connector;rounded=0;orthogonalLoop=1;jettySize=auto;html=1;exitX=1;exitY=0.5;exitDx=0;exitDy=0;entryX=0.25;entryY=0;entryDx=0;entryDy=0;strokeColor=default;align=center;verticalAlign=middle;fontFamily=Helvetica;fontSize=12;fontColor=#ffffff;fontStyle=4;labelBackgroundColor=default;endArrow=none;endFill=0;" edge="1" parent="1" source="JVvVYdlz2nHnX6RRCO4o-13" target="JVvVYdlz2nHnX6RRCO4o-11">
          <mxGeometry relative="1" as="geometry" />
        </mxCell>
        <mxCell id="JVvVYdlz2nHnX6RRCO4o-13" value="ID" style="ellipse;whiteSpace=wrap;html=1;align=center;fontStyle=4;strokeColor=#B09500;verticalAlign=middle;fontFamily=Helvetica;fontSize=12;fontColor=#000000;fillColor=#e3c800;" vertex="1" parent="1">
          <mxGeometry x="75" y="390" width="100" height="40" as="geometry" />
        </mxCell>
        <mxCell id="JVvVYdlz2nHnX6RRCO4o-14" style="edgeStyle=orthogonalEdgeStyle;shape=connector;rounded=0;orthogonalLoop=1;jettySize=auto;html=1;exitX=1;exitY=0.5;exitDx=0;exitDy=0;entryX=0;entryY=0.5;entryDx=0;entryDy=0;strokeColor=default;align=center;verticalAlign=middle;fontFamily=Helvetica;fontSize=12;fontColor=#ffffff;fontStyle=4;labelBackgroundColor=default;endArrow=none;endFill=0;" edge="1" parent="1" source="JVvVYdlz2nHnX6RRCO4o-15" target="JVvVYdlz2nHnX6RRCO4o-11">
          <mxGeometry relative="1" as="geometry">
            <mxPoint x="204.9999999999999" y="480" as="sourcePoint" />
          </mxGeometry>
        </mxCell>
        <mxCell id="JVvVYdlz2nHnX6RRCO4o-15" value="name" style="ellipse;whiteSpace=wrap;html=1;align=center;strokeColor=#B09500;verticalAlign=middle;fontFamily=Helvetica;fontSize=12;fontColor=#000000;fontStyle=0;fillColor=#e3c800;" vertex="1" parent="1">
          <mxGeometry x="75" y="450" width="100" height="40" as="geometry" />
        </mxCell>
        <mxCell id="JVvVYdlz2nHnX6RRCO4o-16" style="edgeStyle=orthogonalEdgeStyle;shape=connector;rounded=0;orthogonalLoop=1;jettySize=auto;html=1;exitX=0.5;exitY=0;exitDx=0;exitDy=0;entryX=0.5;entryY=1;entryDx=0;entryDy=0;strokeColor=default;align=center;verticalAlign=middle;fontFamily=Helvetica;fontSize=12;fontColor=#000000;fontStyle=0;labelBackgroundColor=default;endArrow=none;endFill=0;" edge="1" parent="1" source="JVvVYdlz2nHnX6RRCO4o-17" target="JVvVYdlz2nHnX6RRCO4o-5">
          <mxGeometry relative="1" as="geometry" />
        </mxCell>
        <mxCell id="JVvVYdlz2nHnX6RRCO4o-17" value="written_by" style="shape=rhombus;perimeter=rhombusPerimeter;whiteSpace=wrap;html=1;align=center;strokeColor=#2D7600;verticalAlign=middle;fontFamily=Helvetica;fontSize=12;fontColor=#ffffff;fontStyle=0;fillColor=#60a917;" vertex="1" parent="1">
          <mxGeometry x="345" y="445" width="100" height="50" as="geometry" />
        </mxCell>
        <mxCell id="JVvVYdlz2nHnX6RRCO4o-18" value="&lt;font color=&quot;#ffffff&quot;&gt;N&lt;/font&gt;" style="text;html=1;align=center;verticalAlign=middle;resizable=0;points=[];autosize=1;strokeColor=none;fillColor=none;fontFamily=Helvetica;fontSize=12;fontColor=#000000;fontStyle=0;" vertex="1" parent="1">
          <mxGeometry x="295" y="445" width="30" height="30" as="geometry" />
        </mxCell>
        <mxCell id="JVvVYdlz2nHnX6RRCO4o-19" value="&lt;font color=&quot;#ffffff&quot;&gt;M&lt;/font&gt;" style="text;html=1;align=center;verticalAlign=middle;resizable=0;points=[];autosize=1;strokeColor=none;fillColor=none;fontFamily=Helvetica;fontSize=12;fontColor=#000000;fontStyle=0;" vertex="1" parent="1">
          <mxGeometry x="395" y="380" width="30" height="30" as="geometry" />
        </mxCell>
        <mxCell id="JVvVYdlz2nHnX6RRCO4o-20" value="Category" style="whiteSpace=wrap;html=1;align=center;strokeColor=#A50040;verticalAlign=middle;fontFamily=Helvetica;fontSize=12;fontColor=#ffffff;fillColor=#d80073;" vertex="1" parent="1">
          <mxGeometry x="635" y="340" width="100" height="40" as="geometry" />
        </mxCell>
        <mxCell id="JVvVYdlz2nHnX6RRCO4o-21" value="" style="edgeStyle=orthogonalEdgeStyle;shape=connector;rounded=0;orthogonalLoop=1;jettySize=auto;html=1;strokeColor=default;align=center;verticalAlign=middle;fontFamily=Helvetica;fontSize=12;fontColor=#000000;fontStyle=0;labelBackgroundColor=default;endArrow=none;endFill=0;" edge="1" parent="1" source="JVvVYdlz2nHnX6RRCO4o-22" target="JVvVYdlz2nHnX6RRCO4o-20">
          <mxGeometry relative="1" as="geometry" />
        </mxCell>
        <mxCell id="JVvVYdlz2nHnX6RRCO4o-22" value="name" style="ellipse;whiteSpace=wrap;html=1;align=center;fontStyle=4;strokeColor=#B09500;verticalAlign=middle;fontFamily=Helvetica;fontSize=12;fontColor=#000000;fillColor=#e3c800;" vertex="1" parent="1">
          <mxGeometry x="635" y="260" width="100" height="40" as="geometry" />
        </mxCell>
        <mxCell id="JVvVYdlz2nHnX6RRCO4o-23" value="" style="edgeStyle=orthogonalEdgeStyle;shape=connector;rounded=0;orthogonalLoop=1;jettySize=auto;html=1;strokeColor=default;align=center;verticalAlign=middle;fontFamily=Helvetica;fontSize=12;fontColor=#000000;fontStyle=0;labelBackgroundColor=default;endArrow=none;endFill=0;" edge="1" parent="1" source="JVvVYdlz2nHnX6RRCO4o-24" target="JVvVYdlz2nHnX6RRCO4o-20">
          <mxGeometry relative="1" as="geometry" />
        </mxCell>
        <mxCell id="JVvVYdlz2nHnX6RRCO4o-24" value="belongs_to" style="shape=rhombus;perimeter=rhombusPerimeter;whiteSpace=wrap;html=1;align=center;strokeColor=#2D7600;verticalAlign=middle;fontFamily=Helvetica;fontSize=12;fontColor=#ffffff;fontStyle=0;fillColor=#60a917;" vertex="1" parent="1">
          <mxGeometry x="495" y="335" width="100" height="50" as="geometry" />
        </mxCell>
        <mxCell id="JVvVYdlz2nHnX6RRCO4o-25" value="&lt;font color=&quot;#ffffff&quot;&gt;N&lt;/font&gt;" style="text;html=1;align=center;verticalAlign=middle;resizable=0;points=[];autosize=1;strokeColor=none;fillColor=none;fontFamily=Helvetica;fontSize=12;fontColor=#000000;fontStyle=0;" vertex="1" parent="1">
          <mxGeometry x="445" y="330" width="30" height="30" as="geometry" />
        </mxCell>
        <mxCell id="JVvVYdlz2nHnX6RRCO4o-26" value="&lt;font color=&quot;#ffffff&quot;&gt;1&lt;/font&gt;" style="text;html=1;align=center;verticalAlign=middle;resizable=0;points=[];autosize=1;strokeColor=none;fillColor=none;fontFamily=Helvetica;fontSize=12;fontColor=#000000;fontStyle=0;" vertex="1" parent="1">
          <mxGeometry x="605" y="330" width="30" height="30" as="geometry" />
        </mxCell>
        <mxCell id="JVvVYdlz2nHnX6RRCO4o-27" style="edgeStyle=orthogonalEdgeStyle;shape=connector;rounded=0;orthogonalLoop=1;jettySize=auto;html=1;exitX=0.25;exitY=1;exitDx=0;exitDy=0;entryX=1;entryY=0.5;entryDx=0;entryDy=0;strokeColor=default;align=center;verticalAlign=middle;fontFamily=Helvetica;fontSize=12;fontColor=#000000;fontStyle=0;labelBackgroundColor=default;endArrow=none;endFill=0;" edge="1" parent="1" source="JVvVYdlz2nHnX6RRCO4o-29" target="JVvVYdlz2nHnX6RRCO4o-34">
          <mxGeometry relative="1" as="geometry" />
        </mxCell>
        <mxCell id="JVvVYdlz2nHnX6RRCO4o-28" style="edgeStyle=orthogonalEdgeStyle;shape=connector;rounded=0;orthogonalLoop=1;jettySize=auto;html=1;exitX=1;exitY=0.5;exitDx=0;exitDy=0;strokeColor=default;align=center;verticalAlign=middle;fontFamily=Helvetica;fontSize=12;fontColor=#000000;fontStyle=0;labelBackgroundColor=default;endArrow=none;endFill=0;" edge="1" parent="1" source="JVvVYdlz2nHnX6RRCO4o-29" target="JVvVYdlz2nHnX6RRCO4o-38">
          <mxGeometry relative="1" as="geometry">
            <mxPoint x="335" y="609.8333333333335" as="targetPoint" />
          </mxGeometry>
        </mxCell>
        <mxCell id="JVvVYdlz2nHnX6RRCO4o-29" value="User" style="whiteSpace=wrap;html=1;align=center;strokeColor=#A50040;verticalAlign=middle;fontFamily=Helvetica;fontSize=12;fontColor=#ffffff;fontStyle=0;fillColor=#d80073;" vertex="1" parent="1">
          <mxGeometry x="195" y="590" width="100" height="40" as="geometry" />
        </mxCell>
        <mxCell id="JVvVYdlz2nHnX6RRCO4o-30" value="" style="edgeStyle=orthogonalEdgeStyle;shape=connector;rounded=0;orthogonalLoop=1;jettySize=auto;html=1;strokeColor=default;align=center;verticalAlign=middle;fontFamily=Helvetica;fontSize=12;fontColor=#000000;fontStyle=0;labelBackgroundColor=default;endArrow=none;endFill=0;" edge="1" parent="1" source="JVvVYdlz2nHnX6RRCO4o-31" target="JVvVYdlz2nHnX6RRCO4o-29">
          <mxGeometry relative="1" as="geometry" />
        </mxCell>
        <mxCell id="JVvVYdlz2nHnX6RRCO4o-31" value="name" style="ellipse;whiteSpace=wrap;html=1;align=center;strokeColor=#B09500;verticalAlign=middle;fontFamily=Helvetica;fontSize=12;fontColor=#000000;fontStyle=0;fillColor=#e3c800;" vertex="1" parent="1">
          <mxGeometry x="65" y="590" width="100" height="40" as="geometry" />
        </mxCell>
        <mxCell id="JVvVYdlz2nHnX6RRCO4o-32" style="edgeStyle=orthogonalEdgeStyle;shape=connector;rounded=0;orthogonalLoop=1;jettySize=auto;html=1;exitX=1;exitY=0.5;exitDx=0;exitDy=0;entryX=0.25;entryY=0;entryDx=0;entryDy=0;strokeColor=default;align=center;verticalAlign=middle;fontFamily=Helvetica;fontSize=12;fontColor=#000000;fontStyle=0;labelBackgroundColor=default;endArrow=none;endFill=0;" edge="1" parent="1" source="JVvVYdlz2nHnX6RRCO4o-33" target="JVvVYdlz2nHnX6RRCO4o-29">
          <mxGeometry relative="1" as="geometry" />
        </mxCell>
        <mxCell id="JVvVYdlz2nHnX6RRCO4o-33" value="ID" style="ellipse;whiteSpace=wrap;html=1;align=center;fontStyle=4;strokeColor=#B09500;verticalAlign=middle;fontFamily=Helvetica;fontSize=12;fontColor=#000000;fillColor=#e3c800;" vertex="1" parent="1">
          <mxGeometry x="65" y="530" width="100" height="40" as="geometry" />
        </mxCell>
        <mxCell id="JVvVYdlz2nHnX6RRCO4o-34" value="address" style="ellipse;whiteSpace=wrap;html=1;align=center;strokeColor=#B09500;verticalAlign=middle;fontFamily=Helvetica;fontSize=12;fontColor=#000000;fontStyle=0;fillColor=#e3c800;" vertex="1" parent="1">
          <mxGeometry x="65" y="650" width="100" height="40" as="geometry" />
        </mxCell>
        <mxCell id="JVvVYdlz2nHnX6RRCO4o-35" value="" style="edgeStyle=orthogonalEdgeStyle;shape=connector;rounded=0;orthogonalLoop=1;jettySize=auto;html=1;strokeColor=default;align=center;verticalAlign=middle;fontFamily=Helvetica;fontSize=12;fontColor=#000000;fontStyle=0;labelBackgroundColor=default;endArrow=none;endFill=0;" edge="1" parent="1" source="JVvVYdlz2nHnX6RRCO4o-36">
          <mxGeometry relative="1" as="geometry">
            <mxPoint x="345" y="360" as="targetPoint" />
          </mxGeometry>
        </mxCell>
        <mxCell id="JVvVYdlz2nHnX6RRCO4o-36" value="quantity" style="ellipse;whiteSpace=wrap;html=1;align=center;strokeColor=#B09500;verticalAlign=middle;fontFamily=Helvetica;fontSize=12;fontColor=#000000;fillColor=#e3c800;" vertex="1" parent="1">
          <mxGeometry x="195" y="340" width="100" height="40" as="geometry" />
        </mxCell>
        <mxCell id="JVvVYdlz2nHnX6RRCO4o-37" style="edgeStyle=orthogonalEdgeStyle;shape=connector;rounded=0;orthogonalLoop=1;jettySize=auto;html=1;exitX=1;exitY=0.5;exitDx=0;exitDy=0;entryX=0;entryY=0.5;entryDx=0;entryDy=0;strokeColor=default;align=center;verticalAlign=middle;fontFamily=Helvetica;fontSize=12;fontColor=#000000;fontStyle=0;labelBackgroundColor=default;endArrow=none;endFill=0;" edge="1" parent="1" source="JVvVYdlz2nHnX6RRCO4o-38" target="JVvVYdlz2nHnX6RRCO4o-39">
          <mxGeometry relative="1" as="geometry" />
        </mxCell>
        <mxCell id="JVvVYdlz2nHnX6RRCO4o-38" value="o" style="ellipse;whiteSpace=wrap;html=1;aspect=fixed;strokeColor=#B09500;align=center;verticalAlign=middle;fontFamily=Helvetica;fontSize=12;fontColor=#000000;fontStyle=0;fillColor=#e3c800;" vertex="1" parent="1">
          <mxGeometry x="330" y="595.08" width="29.83" height="29.83" as="geometry" />
        </mxCell>
        <mxCell id="JVvVYdlz2nHnX6RRCO4o-39" value="Student" style="whiteSpace=wrap;html=1;align=center;strokeColor=#A50040;verticalAlign=middle;fontFamily=Helvetica;fontSize=12;fontColor=#ffffff;fontStyle=0;fillColor=#d80073;" vertex="1" parent="1">
          <mxGeometry x="395" y="590" width="100" height="40" as="geometry" />
        </mxCell>
        <mxCell id="JVvVYdlz2nHnX6RRCO4o-40" value="" style="edgeStyle=orthogonalEdgeStyle;shape=connector;rounded=0;orthogonalLoop=1;jettySize=auto;html=1;strokeColor=default;align=center;verticalAlign=middle;fontFamily=Helvetica;fontSize=12;fontColor=#000000;fontStyle=0;labelBackgroundColor=default;endArrow=none;endFill=0;" edge="1" parent="1" source="JVvVYdlz2nHnX6RRCO4o-41" target="JVvVYdlz2nHnX6RRCO4o-39">
          <mxGeometry relative="1" as="geometry" />
        </mxCell>
        <mxCell id="JVvVYdlz2nHnX6RRCO4o-41" value="student_id" style="ellipse;whiteSpace=wrap;html=1;align=center;fontStyle=4;strokeColor=#B09500;verticalAlign=middle;fontFamily=Helvetica;fontSize=12;fontColor=#000000;fillColor=#e3c800;" vertex="1" parent="1">
          <mxGeometry x="395" y="670" width="100" height="40" as="geometry" />
        </mxCell>
        <mxCell id="JVvVYdlz2nHnX6RRCO4o-42" style="edgeStyle=orthogonalEdgeStyle;shape=connector;rounded=0;orthogonalLoop=1;jettySize=auto;html=1;exitX=0.5;exitY=1;exitDx=0;exitDy=0;entryX=0.5;entryY=0;entryDx=0;entryDy=0;strokeColor=default;align=center;verticalAlign=middle;fontFamily=Helvetica;fontSize=12;fontColor=#000000;fontStyle=0;labelBackgroundColor=default;endArrow=none;endFill=0;" edge="1" parent="1" source="JVvVYdlz2nHnX6RRCO4o-45" target="JVvVYdlz2nHnX6RRCO4o-39">
          <mxGeometry relative="1" as="geometry" />
        </mxCell>
        <mxCell id="JVvVYdlz2nHnX6RRCO4o-43" style="edgeStyle=orthogonalEdgeStyle;shape=connector;rounded=0;orthogonalLoop=1;jettySize=auto;html=1;exitX=1;exitY=1;exitDx=0;exitDy=0;entryX=0;entryY=0.5;entryDx=0;entryDy=0;strokeColor=default;align=center;verticalAlign=middle;fontFamily=Helvetica;fontSize=12;fontColor=#000000;fontStyle=0;labelBackgroundColor=default;endArrow=none;endFill=0;" edge="1" parent="1" source="JVvVYdlz2nHnX6RRCO4o-45" target="JVvVYdlz2nHnX6RRCO4o-49">
          <mxGeometry relative="1" as="geometry">
            <Array as="points">
              <mxPoint x="580" y="495" />
            </Array>
          </mxGeometry>
        </mxCell>
        <mxCell id="JVvVYdlz2nHnX6RRCO4o-44" style="edgeStyle=orthogonalEdgeStyle;shape=connector;rounded=0;orthogonalLoop=1;jettySize=auto;html=1;exitX=1;exitY=0;exitDx=0;exitDy=0;entryX=0;entryY=0.5;entryDx=0;entryDy=0;strokeColor=default;align=center;verticalAlign=middle;fontFamily=Helvetica;fontSize=12;fontColor=#000000;fontStyle=0;labelBackgroundColor=default;endArrow=none;endFill=0;" edge="1" parent="1" source="JVvVYdlz2nHnX6RRCO4o-45" target="JVvVYdlz2nHnX6RRCO4o-51">
          <mxGeometry relative="1" as="geometry">
            <Array as="points">
              <mxPoint x="580" y="450" />
            </Array>
          </mxGeometry>
        </mxCell>
        <mxCell id="JVvVYdlz2nHnX6RRCO4o-45" value="borrows" style="shape=rhombus;perimeter=rhombusPerimeter;whiteSpace=wrap;html=1;align=center;strokeColor=#2D7600;verticalAlign=middle;fontFamily=Helvetica;fontSize=12;fontColor=#ffffff;fontStyle=0;fillColor=#60a917;" vertex="1" parent="1">
          <mxGeometry x="505" y="445" width="100" height="50" as="geometry" />
        </mxCell>
        <mxCell id="JVvVYdlz2nHnX6RRCO4o-46" value="&lt;font color=&quot;#ffffff&quot;&gt;N&lt;/font&gt;" style="text;html=1;align=center;verticalAlign=middle;resizable=0;points=[];autosize=1;strokeColor=none;fillColor=none;fontFamily=Helvetica;fontSize=12;fontColor=#000000;fontStyle=0;" vertex="1" parent="1">
          <mxGeometry x="445" y="380" width="30" height="30" as="geometry" />
        </mxCell>
        <mxCell id="JVvVYdlz2nHnX6RRCO4o-47" value="&lt;font color=&quot;#ffffff&quot;&gt;M&lt;/font&gt;" style="text;html=1;align=center;verticalAlign=middle;resizable=0;points=[];autosize=1;strokeColor=none;fillColor=none;fontFamily=Helvetica;fontSize=12;fontColor=#000000;fontStyle=0;" vertex="1" parent="1">
          <mxGeometry x="445" y="555" width="30" height="30" as="geometry" />
        </mxCell>
        <mxCell id="JVvVYdlz2nHnX6RRCO4o-48" style="edgeStyle=orthogonalEdgeStyle;shape=connector;rounded=0;orthogonalLoop=1;jettySize=auto;html=1;exitX=1;exitY=0.5;exitDx=0;exitDy=0;entryX=0.5;entryY=0;entryDx=0;entryDy=0;strokeColor=default;align=center;verticalAlign=middle;fontFamily=Helvetica;fontSize=12;fontColor=#000000;fontStyle=0;labelBackgroundColor=default;endArrow=none;endFill=0;" edge="1" parent="1" source="JVvVYdlz2nHnX6RRCO4o-49" target="JVvVYdlz2nHnX6RRCO4o-52">
          <mxGeometry relative="1" as="geometry" />
        </mxCell>
        <mxCell id="JVvVYdlz2nHnX6RRCO4o-49" value="borrow_date" style="ellipse;whiteSpace=wrap;html=1;align=center;strokeColor=#B09500;verticalAlign=middle;fontFamily=Helvetica;fontSize=12;fontColor=#000000;fillColor=#e3c800;" vertex="1" parent="1">
          <mxGeometry x="615" y="475" width="100" height="40" as="geometry" />
        </mxCell>
        <mxCell id="JVvVYdlz2nHnX6RRCO4o-50" style="edgeStyle=orthogonalEdgeStyle;shape=connector;rounded=0;orthogonalLoop=1;jettySize=auto;html=1;exitX=1;exitY=0.5;exitDx=0;exitDy=0;entryX=0.647;entryY=-0.029;entryDx=0;entryDy=0;strokeColor=default;align=center;verticalAlign=middle;fontFamily=Helvetica;fontSize=12;fontColor=#000000;fontStyle=0;labelBackgroundColor=default;endArrow=none;endFill=0;entryPerimeter=0;" edge="1" parent="1" source="JVvVYdlz2nHnX6RRCO4o-51" target="JVvVYdlz2nHnX6RRCO4o-52">
          <mxGeometry relative="1" as="geometry" />
        </mxCell>
        <mxCell id="JVvVYdlz2nHnX6RRCO4o-51" value="return_date" style="ellipse;whiteSpace=wrap;html=1;align=center;strokeColor=#B09500;verticalAlign=middle;fontFamily=Helvetica;fontSize=12;fontColor=#000000;fillColor=#e3c800;" vertex="1" parent="1">
          <mxGeometry x="615" y="430" width="100" height="40" as="geometry" />
        </mxCell>
        <mxCell id="JVvVYdlz2nHnX6RRCO4o-52" value="return_status" style="ellipse;whiteSpace=wrap;html=1;align=center;dashed=1;strokeColor=#B09500;verticalAlign=middle;fontFamily=Helvetica;fontSize=12;fontColor=#000000;fontStyle=0;fillColor=#e3c800;" vertex="1" parent="1">
          <mxGeometry x="685" y="545" width="100" height="40" as="geometry" />
        </mxCell>
      </root>
    </mxGraphModel>
  </diagram>
</mxfile>
